<?xml version="1.0" standalone="no"?>
<!DOCTYPE svg PUBLIC "-//W3C//DTD SVG 20010904//EN"
 "http://www.w3.org/TR/2001/REC-SVG-20010904/DTD/svg10.dtd">
<svg version="1.0" xmlns="http://www.w3.org/2000/svg"
 width="850.000000pt" height="371.000000pt" viewBox="0 0 850.000000 371.000000"
 preserveAspectRatio="xMidYMid meet">

<g transform="translate(0.000000,371.000000) scale(0.100000,-0.100000)"
fill="#000000" stroke="none">
<path d="M0 1855 l0 -1855 4250 0 4250 0 0 1855 0 1855 -4250 0 -4250 0 0
-1855z m1636 714 c155 -28 246 -116 273 -264 14 -74 14 -335 1 -405 -22 -117
-45 -147 -216 -289 -172 -142 -215 -166 -332 -179 l-67 -7 -6 -60 c-3 -33 -10
-68 -15 -77 -5 -9 -67 -64 -137 -122 l-128 -106 -178 0 c-168 0 -179 1 -197
21 -18 20 -19 47 -22 625 -2 471 0 610 10 633 12 26 94 102 221 203 l49 38
342 0 c203 0 366 -4 402 -11z m1504 -20 c69 -34 107 -69 134 -128 18 -40 21
-64 21 -196 0 -145 -1 -152 -27 -196 l-27 -46 39 -17 c22 -9 55 -36 75 -59 58
-67 65 -109 65 -376 l0 -235 -46 -42 c-25 -23 -87 -77 -138 -118 l-94 -76
-176 0 c-231 0 -216 -15 -216 206 0 172 -6 204 -40 204 -18 0 -20 -7 -20 -85
0 -101 3 -96 -165 -234 l-110 -91 -177 0 -177 0 -20 26 c-21 26 -21 35 -21
633 0 462 3 611 13 629 6 12 68 70 137 128 l125 105 395 -3 395 -3 55 -26z
m1506 17 c17 -13 19 -29 22 -159 2 -92 -1 -153 -7 -166 -6 -11 -61 -62 -121
-112 l-110 -92 0 -203 0 -204 95 0 c88 0 98 -2 120 -25 24 -23 25 -29 25 -164
0 -165 13 -142 -160 -285 l-115 -96 -422 0 c-410 0 -424 1 -443 20 -18 18 -20
33 -20 166 l0 146 43 39 c23 22 77 67 119 102 l77 62 -2 205 -2 205 -103 5
c-136 7 -132 1 -132 186 0 168 -13 144 158 288 l114 96 422 0 c349 0 426 -2
442 -14z m826 -5 c13 -11 53 -74 89 -140 35 -66 67 -121 72 -121 4 0 13 11 19
26 10 22 201 191 267 236 22 15 51 18 209 18 169 0 183 -1 202 -20 20 -20 20
-33 20 -642 l0 -621 -43 -41 c-24 -23 -86 -76 -139 -119 l-96 -77 -174 0
c-135 0 -179 3 -194 14 -18 13 -19 32 -24 276 l-5 262 -64 -51 c-42 -34 -77
-53 -102 -57 l-39 -7 0 -97 c0 -79 -3 -102 -17 -118 -10 -12 -72 -66 -138
-122 l-120 -100 -172 0 c-160 0 -175 2 -193 20 -20 20 -20 33 -20 636 0 403 4
622 10 635 6 10 67 66 136 124 l125 105 183 0 c166 0 186 -2 208 -19z m2246 3
c21 -14 22 -21 22 -165 l0 -151 -28 -26 c-15 -15 -53 -48 -84 -75 -56 -46 -57
-48 -42 -75 10 -19 14 -63 14 -149 0 -140 0 -140 -116 -234 -80 -65 -76 -68
94 -67 168 0 162 7 162 -182 l0 -146 -37 -35 c-21 -20 -82 -73 -136 -117 l-98
-82 -452 0 c-393 0 -455 2 -475 16 l-22 15 0 627 c0 345 4 632 8 637 8 11 190
168 236 203 29 22 29 22 480 22 393 0 454 -2 474 -16z"/>
<path d="M881 2551 c-21 -21 -21 -26 -21 -634 0 -582 1 -615 18 -630 27 -24
352 -25 376 -1 13 13 16 44 16 180 l0 164 139 0 c330 0 460 76 491 287 12 86
12 278 0 362 -13 91 -54 168 -114 212 -90 68 -117 72 -523 76 -356 5 -362 4
-382 -16z m678 -162 c65 -14 109 -44 135 -94 17 -33 22 -62 25 -170 5 -199
-15 -261 -102 -308 -40 -21 -56 -22 -289 -25 l-248 -4 -3 -176 c-1 -97 -4 40
-5 306 l-2 482 220 0 c120 0 242 -5 269 -11z"/>
<path d="M1080 2095 l0 -297 243 4 c227 3 245 5 284 25 84 45 108 118 101 304
-6 145 -26 189 -103 228 -48 25 -55 26 -287 29 l-238 4 0 -297z m412 104 c21
-25 25 -166 7 -202 -18 -34 -28 -37 -131 -37 l-98 0 0 128 c0 71 2 131 4 133
2 2 49 3 103 2 87 -2 100 -4 115 -24z"/>
<path d="M2293 2555 l-23 -16 0 -619 c0 -549 2 -620 16 -634 13 -13 45 -16
189 -16 168 0 174 1 189 22 13 18 16 56 16 205 l0 183 144 0 c104 0 146 -4
154 -13 6 -7 12 -85 14 -191 3 -162 5 -179 22 -192 15 -11 59 -14 192 -14 167
0 173 1 188 22 23 33 23 440 0 517 -19 64 -81 135 -132 152 -55 17 -55 18 -23
55 43 49 54 100 49 234 -6 138 -22 184 -85 239 -82 73 -91 74 -513 78 -332 4
-378 2 -397 -12z m697 -181 c19 -11 46 -40 60 -65 23 -41 25 -53 25 -179 0
-152 -11 -196 -56 -234 -16 -14 -29 -27 -29 -30 0 -3 16 -6 36 -6 61 0 128
-36 154 -82 21 -37 24 -58 28 -190 3 -107 2 -148 -7 -148 -8 0 -11 44 -11 149
0 137 -2 150 -22 181 -13 18 -36 43 -51 54 -27 20 -42 21 -333 24 l-304 3 0
-213 c0 -141 -4 -208 -10 -198 -11 18 -14 943 -3 954 4 4 116 6 248 4 221 -3
243 -5 275 -24z"/>
<path d="M2480 2130 l0 -261 249 3 250 3 30 29 c42 41 51 80 51 231 0 116 -3
134 -23 169 -42 76 -61 81 -324 84 l-233 4 0 -262z m386 89 c15 -17 19 -36 19
-95 0 -96 -6 -102 -115 -105 l-85 -2 -3 111 -3 112 84 0 c73 0 86 -3 103 -21z"/>
<path d="M3779 2551 c-22 -18 -24 -27 -27 -136 -6 -191 -3 -195 144 -195 l104
0 0 -299 0 -299 -105 -4 c-143 -4 -140 0 -140 -179 0 -128 2 -142 19 -155 16
-12 93 -14 437 -14 l418 0 15 22 c13 18 16 51 16 149 0 171 -2 173 -139 177
l-101 4 0 299 0 299 105 0 c139 0 138 -1 133 184 -2 94 -7 139 -16 148 -10 10
-104 14 -426 16 -396 3 -414 2 -437 -17z m576 -161 l-140 -5 -3 -467 -2 -468
140 0 c92 0 139 -4 135 -10 -4 -6 -108 -10 -280 -10 -172 0 -276 4 -280 10 -4
6 43 10 134 10 l141 0 0 470 0 469 -142 4 c-79 1 -12 3 147 3 194 0 244 -2
150 -6z"/>
<path d="M5088 2564 c-37 -11 -39 -42 -36 -662 3 -584 4 -604 22 -618 28 -20
334 -20 362 0 18 14 19 27 16 323 -2 169 1 314 6 321 6 9 23 -14 56 -77 64
-120 81 -134 160 -139 100 -6 123 9 187 128 30 55 57 100 62 100 4 0 7 -144 7
-319 0 -277 2 -322 16 -335 13 -13 45 -16 189 -16 168 0 174 1 189 22 14 20
16 96 16 630 0 595 0 608 -20 628 -18 18 -33 20 -196 20 l-176 0 -27 -27 c-15
-16 -62 -93 -105 -172 -100 -186 -97 -181 -122 -181 -16 0 -39 33 -110 162
-128 234 -98 213 -306 215 -95 1 -180 -1 -190 -3z m268 -172 c6 -4 73 -100
147 -214 142 -216 154 -228 211 -214 24 6 35 21 211 291 43 66 85 126 93 133
25 20 90 15 102 -7 12 -23 14 -941 3 -941 -5 0 -7 205 -5 455 2 306 -1 462 -8
475 -11 20 -54 27 -76 12 -6 -4 -70 -95 -142 -203 -72 -108 -138 -204 -147
-213 -20 -19 -84 -21 -107 -3 -9 6 -76 102 -149 212 -72 110 -137 203 -143
207 -18 12 -63 9 -75 -5 -7 -10 -12 -156 -14 -478 l-2 -464 -3 471 c-1 355 1
473 10 482 13 13 76 16 94 4z"/>
<path d="M6780 2550 c-20 -20 -20 -33 -20 -628 0 -534 2 -610 16 -630 l15 -22
453 0 c426 0 454 1 469 18 14 15 17 42 17 154 0 118 -2 137 -18 151 -16 15
-51 17 -280 17 l-262 0 0 75 0 75 184 0 c243 0 231 -8 231 169 0 118 -2 131
-20 145 -16 12 -56 15 -207 16 l-188 0 0 65 0 64 266 3 c250 3 266 4 280 22
10 15 14 54 14 153 0 120 -2 135 -20 153 -19 19 -33 20 -465 20 -432 0 -446
-1 -465 -20z m495 -157 c-216 -3 -291 -6 -297 -16 -9 -14 -11 -408 -2 -431 5
-14 36 -16 228 -18 l221 -3 -220 -2 c-160 -3 -221 -7 -227 -16 -9 -14 -11
-418 -2 -441 5 -14 41 -16 295 -16 189 0 289 -4 289 -10 0 -7 -101 -9 -297 -8
l-298 3 -3 483 -2 482 302 -2 303 -3 -290 -2z"/>
</g>
</svg>
